<mxfile host="Electron" agent="Mozilla/5.0 (Macintosh; Intel Mac OS X 10_15_7) AppleWebKit/537.36 (KHTML, like Gecko) draw.io/27.0.5 Chrome/134.0.6998.205 Electron/35.3.0 Safari/537.36" version="27.0.5" pages="2">
  <diagram name="Страница — 1" id="ztPIJUuUdurFPZGE2Xz8">
    <mxGraphModel dx="878" dy="1873" grid="1" gridSize="10" guides="1" tooltips="1" connect="1" arrows="1" fold="1" page="1" pageScale="1" pageWidth="827" pageHeight="1169" math="0" shadow="0">
      <root>
        <mxCell id="0" />
        <mxCell id="1" parent="0" />
        <mxCell id="9YMQOicb1sSqykPRnoGo-1" value="&lt;meta charset=&quot;utf-8&quot;&gt;&lt;span style=&quot;color: rgb(50, 52, 55); font-family: system-ui, sans-serif, &amp;quot;Apple Color Emoji&amp;quot;, &amp;quot;Segoe UI Emoji&amp;quot;, &amp;quot;Segoe UI Symbol&amp;quot;, &amp;quot;Noto Color Emoji&amp;quot;; font-size: 14px; font-style: normal; font-variant-ligatures: normal; font-variant-caps: normal; font-weight: 400; letter-spacing: normal; orphans: 2; text-align: start; text-indent: 0px; text-transform: none; widows: 2; word-spacing: 0px; -webkit-text-stroke-width: 0px; white-space: break-spaces; background-color: rgb(248, 249, 252); text-decoration-thickness: initial; text-decoration-style: initial; text-decoration-color: initial; display: inline !important; float: none;&quot;&gt;КЕЙС 2. Парковка &#xa;На парковке доступно определённое количество мест. Они могут быть 3х размеров — S, M и L. На парковку заезжают транспортные средства разных типов — мотоциклы, легковые автомобили и грузовые. Они занимают места следующим образом: S — помещается один мотоцикл M — два мотоцикла или одна легковушка L — 4 мотоцикла, 2 легковушки или один грузовичок Паркинг должен показывать количество свободных мест всех типов. При въезде транспортного средства ему нужно указать, на какое место встать. Чем плотнее заставлена парковка — тем лучше. Для каждого транспортного средства своя ставка. Также прайс зависит от времени стоянки. Например, для легкового автомобиля: 💲 первые 10 минут — бесплатно &#xa;💲 следующие 50 минут — 300 рублей &#xa;💲 1-3 час — 250 рублей в час &#xa;💲 3 час и далее — 200 рублей в час Оплата считается, когда транспортное средство покидает парковку.&lt;/span&gt;" style="whiteSpace=wrap;html=1;aspect=fixed;fillColor=#dae8fc;strokeColor=#6c8ebf;" parent="1" vertex="1">
          <mxGeometry x="40" y="40" width="370" height="370" as="geometry" />
        </mxCell>
        <mxCell id="9YMQOicb1sSqykPRnoGo-4" value="Тип транспортного средства" style="swimlane;childLayout=stackLayout;horizontal=1;startSize=50;horizontalStack=0;rounded=1;fontSize=14;fontStyle=0;strokeWidth=2;resizeParent=0;resizeLast=1;shadow=0;dashed=0;align=center;arcSize=4;whiteSpace=wrap;html=1;" parent="1" vertex="1">
          <mxGeometry x="860" y="-150" width="150" height="120" as="geometry" />
        </mxCell>
        <mxCell id="9YMQOicb1sSqykPRnoGo-5" value="*Номер&lt;div&gt;Тип средства&lt;/div&gt;" style="align=left;strokeColor=none;fillColor=none;spacingLeft=4;spacingRight=4;fontSize=12;verticalAlign=top;resizable=0;rotatable=0;part=1;html=1;whiteSpace=wrap;" parent="9YMQOicb1sSqykPRnoGo-4" vertex="1">
          <mxGeometry y="50" width="150" height="70" as="geometry" />
        </mxCell>
        <mxCell id="9YMQOicb1sSqykPRnoGo-6" value="Вместимость места" style="swimlane;childLayout=stackLayout;horizontal=1;startSize=50;horizontalStack=0;rounded=1;fontSize=14;fontStyle=0;strokeWidth=2;resizeParent=0;resizeLast=1;shadow=0;dashed=0;align=center;arcSize=4;whiteSpace=wrap;html=1;" parent="1" vertex="1">
          <mxGeometry x="580" y="-30" width="160" height="120" as="geometry" />
        </mxCell>
        <mxCell id="9YMQOicb1sSqykPRnoGo-7" value="*Номер&lt;div&gt;*Размер&lt;/div&gt;&lt;div&gt;Тип средства&lt;/div&gt;" style="align=left;strokeColor=none;fillColor=none;spacingLeft=4;spacingRight=4;fontSize=12;verticalAlign=top;resizable=0;rotatable=0;part=1;html=1;whiteSpace=wrap;" parent="9YMQOicb1sSqykPRnoGo-6" vertex="1">
          <mxGeometry y="50" width="160" height="70" as="geometry" />
        </mxCell>
        <mxCell id="9YMQOicb1sSqykPRnoGo-10" value="Парковочное место" style="swimlane;childLayout=stackLayout;horizontal=1;startSize=50;horizontalStack=0;rounded=1;fontSize=14;fontStyle=0;strokeWidth=2;resizeParent=0;resizeLast=1;shadow=0;dashed=0;align=center;arcSize=4;whiteSpace=wrap;html=1;" parent="1" vertex="1">
          <mxGeometry x="790" y="340" width="160" height="150" as="geometry" />
        </mxCell>
        <mxCell id="9YMQOicb1sSqykPRnoGo-11" value="*Подномер места&lt;div&gt;&lt;div&gt;Размер места&lt;/div&gt;&lt;div&gt;Тип средства&lt;/div&gt;&lt;div&gt;Статус&lt;/div&gt;&lt;/div&gt;" style="align=left;strokeColor=none;fillColor=none;spacingLeft=4;spacingRight=4;fontSize=12;verticalAlign=top;resizable=0;rotatable=0;part=1;html=1;whiteSpace=wrap;" parent="9YMQOicb1sSqykPRnoGo-10" vertex="1">
          <mxGeometry y="50" width="160" height="100" as="geometry" />
        </mxCell>
        <mxCell id="9YMQOicb1sSqykPRnoGo-12" value="Статус" style="swimlane;childLayout=stackLayout;horizontal=1;startSize=50;horizontalStack=0;rounded=1;fontSize=14;fontStyle=0;strokeWidth=2;resizeParent=0;resizeLast=1;shadow=0;dashed=0;align=center;arcSize=4;whiteSpace=wrap;html=1;" parent="1" vertex="1">
          <mxGeometry x="1070" y="370" width="160" height="120" as="geometry" />
        </mxCell>
        <mxCell id="9YMQOicb1sSqykPRnoGo-13" value="*Номер&lt;div&gt;Статус&lt;/div&gt;" style="align=left;strokeColor=none;fillColor=none;spacingLeft=4;spacingRight=4;fontSize=12;verticalAlign=top;resizable=0;rotatable=0;part=1;html=1;whiteSpace=wrap;" parent="9YMQOicb1sSqykPRnoGo-12" vertex="1">
          <mxGeometry y="50" width="160" height="70" as="geometry" />
        </mxCell>
        <mxCell id="9YMQOicb1sSqykPRnoGo-14" value="Транспортное&lt;div&gt;&amp;nbsp;средство&lt;/div&gt;" style="swimlane;childLayout=stackLayout;horizontal=1;startSize=50;horizontalStack=0;rounded=1;fontSize=14;fontStyle=0;strokeWidth=2;resizeParent=0;resizeLast=1;shadow=0;dashed=0;align=center;arcSize=4;whiteSpace=wrap;html=1;" parent="1" vertex="1">
          <mxGeometry x="1010" y="125" width="170" height="150" as="geometry" />
        </mxCell>
        <mxCell id="9YMQOicb1sSqykPRnoGo-15" value="*Государственный номер&lt;div&gt;Тип средства&lt;/div&gt;" style="align=left;strokeColor=none;fillColor=none;spacingLeft=4;spacingRight=4;fontSize=12;verticalAlign=top;resizable=0;rotatable=0;part=1;html=1;whiteSpace=wrap;" parent="9YMQOicb1sSqykPRnoGo-14" vertex="1">
          <mxGeometry y="50" width="170" height="100" as="geometry" />
        </mxCell>
        <mxCell id="9YMQOicb1sSqykPRnoGo-16" value="Тариф" style="swimlane;childLayout=stackLayout;horizontal=1;startSize=50;horizontalStack=0;rounded=1;fontSize=14;fontStyle=0;strokeWidth=2;resizeParent=0;resizeLast=1;shadow=0;dashed=0;align=center;arcSize=4;whiteSpace=wrap;html=1;" parent="1" vertex="1">
          <mxGeometry x="1530" y="-160" width="160" height="140" as="geometry" />
        </mxCell>
        <mxCell id="9YMQOicb1sSqykPRnoGo-17" value="*Номер тарифа&lt;div&gt;Описание&lt;br&gt;&lt;div&gt;Стоимость&lt;/div&gt;&lt;div&gt;Тип средства&lt;/div&gt;&lt;div&gt;Время стоянки&lt;/div&gt;&lt;/div&gt;" style="align=left;strokeColor=none;fillColor=none;spacingLeft=4;spacingRight=4;fontSize=12;verticalAlign=top;resizable=0;rotatable=0;part=1;html=1;whiteSpace=wrap;" parent="9YMQOicb1sSqykPRnoGo-16" vertex="1">
          <mxGeometry y="50" width="160" height="90" as="geometry" />
        </mxCell>
        <mxCell id="9YMQOicb1sSqykPRnoGo-18" value="Оплата" style="swimlane;childLayout=stackLayout;horizontal=1;startSize=50;horizontalStack=0;rounded=1;fontSize=14;fontStyle=0;strokeWidth=2;resizeParent=0;resizeLast=1;shadow=0;dashed=0;align=center;arcSize=4;whiteSpace=wrap;html=1;" parent="1" vertex="1">
          <mxGeometry x="1640" y="90" width="170" height="120" as="geometry" />
        </mxCell>
        <mxCell id="9YMQOicb1sSqykPRnoGo-19" value="*Номер чека&lt;div&gt;&lt;div&gt;Сумма&lt;/div&gt;&lt;div&gt;Дата и время оплаты&lt;/div&gt;&lt;/div&gt;" style="align=left;strokeColor=none;fillColor=none;spacingLeft=4;spacingRight=4;fontSize=12;verticalAlign=top;resizable=0;rotatable=0;part=1;html=1;whiteSpace=wrap;" parent="9YMQOicb1sSqykPRnoGo-18" vertex="1">
          <mxGeometry y="50" width="170" height="70" as="geometry" />
        </mxCell>
        <mxCell id="9YMQOicb1sSqykPRnoGo-22" value="" style="edgeStyle=entityRelationEdgeStyle;fontSize=12;html=1;endArrow=ERmandOne;endFill=0;rounded=0;entryX=0;entryY=0.25;entryDx=0;entryDy=0;exitX=0.994;exitY=0.157;exitDx=0;exitDy=0;exitPerimeter=0;startArrow=ERmandOne;startFill=0;" parent="1" source="9YMQOicb1sSqykPRnoGo-7" target="9YMQOicb1sSqykPRnoGo-5" edge="1">
          <mxGeometry width="100" height="100" relative="1" as="geometry">
            <mxPoint x="690" y="340" as="sourcePoint" />
            <mxPoint x="790" y="240" as="targetPoint" />
          </mxGeometry>
        </mxCell>
        <mxCell id="9YMQOicb1sSqykPRnoGo-32" value="Содержит" style="edgeLabel;html=1;align=center;verticalAlign=middle;resizable=0;points=[];" parent="9YMQOicb1sSqykPRnoGo-22" vertex="1" connectable="0">
          <mxGeometry x="0.0535" relative="1" as="geometry">
            <mxPoint as="offset" />
          </mxGeometry>
        </mxCell>
        <mxCell id="9YMQOicb1sSqykPRnoGo-23" value="" style="edgeStyle=orthogonalEdgeStyle;fontSize=12;html=1;endArrow=ERoneToMany;startArrow=ERmandOne;rounded=0;exitX=1;exitY=0.5;exitDx=0;exitDy=0;entryX=1;entryY=0.25;entryDx=0;entryDy=0;endFill=0;" parent="1" source="9YMQOicb1sSqykPRnoGo-7" target="9YMQOicb1sSqykPRnoGo-38" edge="1">
          <mxGeometry width="100" height="100" relative="1" as="geometry">
            <mxPoint x="690" y="440" as="sourcePoint" />
            <mxPoint x="790" y="340" as="targetPoint" />
          </mxGeometry>
        </mxCell>
        <mxCell id="9YMQOicb1sSqykPRnoGo-24" value="" style="edgeStyle=entityRelationEdgeStyle;fontSize=12;html=1;endArrow=ERmandOne;startArrow=ERoneToMany;rounded=0;entryX=0;entryY=0.25;entryDx=0;entryDy=0;exitX=1;exitY=0.5;exitDx=0;exitDy=0;endFill=0;startFill=0;" parent="1" source="9YMQOicb1sSqykPRnoGo-11" target="9YMQOicb1sSqykPRnoGo-13" edge="1">
          <mxGeometry width="100" height="100" relative="1" as="geometry">
            <mxPoint x="987" y="370" as="sourcePoint" />
            <mxPoint x="1087" y="270" as="targetPoint" />
          </mxGeometry>
        </mxCell>
        <mxCell id="9YMQOicb1sSqykPRnoGo-47" value="Находится" style="edgeLabel;html=1;align=center;verticalAlign=middle;resizable=0;points=[];" parent="9YMQOicb1sSqykPRnoGo-24" vertex="1" connectable="0">
          <mxGeometry x="-0.0811" y="-1" relative="1" as="geometry">
            <mxPoint as="offset" />
          </mxGeometry>
        </mxCell>
        <mxCell id="9YMQOicb1sSqykPRnoGo-26" value="" style="fontSize=12;html=1;endArrow=ERoneToMany;startArrow=ERmandOne;rounded=0;entryX=-0.018;entryY=0.15;entryDx=0;entryDy=0;entryPerimeter=0;exitX=1;exitY=0.357;exitDx=0;exitDy=0;exitPerimeter=0;endFill=0;edgeStyle=orthogonalEdgeStyle;" parent="1" source="9YMQOicb1sSqykPRnoGo-5" target="9YMQOicb1sSqykPRnoGo-15" edge="1">
          <mxGeometry width="100" height="100" relative="1" as="geometry">
            <mxPoint x="930" y="190" as="sourcePoint" />
            <mxPoint x="1030" y="90" as="targetPoint" />
            <Array as="points">
              <mxPoint x="1050" y="-75" />
              <mxPoint x="1050" y="73" />
              <mxPoint x="970" y="73" />
              <mxPoint x="970" y="190" />
            </Array>
          </mxGeometry>
        </mxCell>
        <mxCell id="9YMQOicb1sSqykPRnoGo-48" value="Содержит" style="edgeLabel;html=1;align=center;verticalAlign=middle;resizable=0;points=[];" parent="9YMQOicb1sSqykPRnoGo-26" vertex="1" connectable="0">
          <mxGeometry x="0.0968" y="-1" relative="1" as="geometry">
            <mxPoint as="offset" />
          </mxGeometry>
        </mxCell>
        <mxCell id="9YMQOicb1sSqykPRnoGo-28" value="" style="edgeStyle=orthogonalEdgeStyle;fontSize=12;html=1;endArrow=ERoneToMany;endFill=0;rounded=0;exitX=1;exitY=0.5;exitDx=0;exitDy=0;entryX=-0.006;entryY=0.118;entryDx=0;entryDy=0;entryPerimeter=0;startArrow=ERmandOne;startFill=0;" parent="1" source="9YMQOicb1sSqykPRnoGo-56" target="9YMQOicb1sSqykPRnoGo-19" edge="1">
          <mxGeometry width="100" height="100" relative="1" as="geometry">
            <mxPoint x="1200" y="330" as="sourcePoint" />
            <mxPoint x="1300" y="230" as="targetPoint" />
          </mxGeometry>
        </mxCell>
        <mxCell id="9YMQOicb1sSqykPRnoGo-50" value="Принадлежит" style="edgeLabel;html=1;align=center;verticalAlign=middle;resizable=0;points=[];" parent="9YMQOicb1sSqykPRnoGo-28" vertex="1" connectable="0">
          <mxGeometry x="-0.0416" y="-1" relative="1" as="geometry">
            <mxPoint as="offset" />
          </mxGeometry>
        </mxCell>
        <mxCell id="9YMQOicb1sSqykPRnoGo-31" value="" style="edgeStyle=orthogonalEdgeStyle;fontSize=12;html=1;endArrow=ERmandOne;startArrow=ERmandOne;rounded=0;entryX=0.42;entryY=1.013;entryDx=0;entryDy=0;entryPerimeter=0;exitX=1;exitY=0.25;exitDx=0;exitDy=0;endFill=0;startFill=0;" parent="1" source="9YMQOicb1sSqykPRnoGo-11" target="9YMQOicb1sSqykPRnoGo-56" edge="1">
          <mxGeometry width="100" height="100" relative="1" as="geometry">
            <mxPoint x="920" y="430" as="sourcePoint" />
            <mxPoint x="1020" y="330" as="targetPoint" />
            <Array as="points">
              <mxPoint x="1000" y="415" />
              <mxPoint x="1000" y="320" />
              <mxPoint x="1336" y="320" />
              <mxPoint x="1336" y="260" />
            </Array>
          </mxGeometry>
        </mxCell>
        <mxCell id="9YMQOicb1sSqykPRnoGo-52" value="Принадлежит" style="edgeLabel;html=1;align=center;verticalAlign=middle;resizable=0;points=[];" parent="9YMQOicb1sSqykPRnoGo-31" vertex="1" connectable="0">
          <mxGeometry x="0.2743" y="4" relative="1" as="geometry">
            <mxPoint as="offset" />
          </mxGeometry>
        </mxCell>
        <mxCell id="9YMQOicb1sSqykPRnoGo-33" value="&lt;div style=&quot;text-align: justify;&quot;&gt;&lt;span style=&quot;background-color: transparent; color: light-dark(rgb(0, 0, 0), rgb(255, 255, 255));&quot;&gt;Привет!)&lt;/span&gt;&lt;/div&gt;&lt;div style=&quot;text-align: justify;&quot;&gt;Подскажи, пожалуйста, нумерация мест размерами&amp;nbsp; M, L предполагает какое-то дробление, если там будет стоять мотоцикл или легковой автомобиль? Т.е. место размером L будет занято частично.&lt;/div&gt;&lt;div style=&quot;text-align: justify;&quot;&gt;&lt;br&gt;&lt;/div&gt;&lt;div style=&quot;text-align: justify;&quot;&gt;Я предположила, что у парковочного места, например № 15, размер L. Тогда у него есть подномера: 15.1 - 15.2 - размер M, 15.1.А - 15.1.Б - размер S, 15.2.А - 15.2.Б - размер S.&amp;nbsp;&lt;/div&gt;&lt;div style=&quot;text-align: justify;&quot;&gt;У парковочного места размером L, тоже может быть подномер для унификации.&lt;/div&gt;&lt;div style=&quot;text-align: justify;&quot;&gt;&lt;br&gt;&lt;/div&gt;&lt;div style=&quot;text-align: justify;&quot;&gt;Я не понимаю, как отобразить зависимость, если парковочное место №&amp;nbsp;&lt;span style=&quot;background-color: transparent; color: light-dark(rgb(0, 0, 0), rgb(255, 255, 255));&quot;&gt;15.1.А занято мотоциклом, то на место №&amp;nbsp;&lt;/span&gt;&lt;span style=&quot;background-color: transparent; color: light-dark(rgb(0, 0, 0), rgb(255, 255, 255));&quot;&gt;15.1 уже не сможет встать легковой автомобиль, и на место № 15 не поместиться грузовой автомобиль.&amp;nbsp;&lt;/span&gt;&lt;/div&gt;&lt;div style=&quot;text-align: justify;&quot;&gt;&lt;span style=&quot;background-color: transparent; color: light-dark(rgb(0, 0, 0), rgb(255, 255, 255));&quot;&gt;Нужно ли делать отдельный справочник с точными парковочними местами и их разбивками?&amp;nbsp;&lt;/span&gt;&lt;/div&gt;&lt;div&gt;&amp;nbsp;&lt;/div&gt;" style="rounded=0;whiteSpace=wrap;html=1;fillColor=#fff2cc;strokeColor=#d6b656;" parent="1" vertex="1">
          <mxGeometry x="70" y="440" width="320" height="320" as="geometry" />
        </mxCell>
        <mxCell id="9YMQOicb1sSqykPRnoGo-35" value="" style="edgeStyle=entityRelationEdgeStyle;fontSize=12;html=1;endArrow=ERoneToMany;startArrow=ERmandOne;rounded=0;exitX=0.981;exitY=0.157;exitDx=0;exitDy=0;exitPerimeter=0;entryX=-0.006;entryY=0.157;entryDx=0;entryDy=0;entryPerimeter=0;endFill=0;startFill=0;" parent="1" source="9YMQOicb1sSqykPRnoGo-5" target="9YMQOicb1sSqykPRnoGo-17" edge="1">
          <mxGeometry width="100" height="100" relative="1" as="geometry">
            <mxPoint x="987" y="130" as="sourcePoint" />
            <mxPoint x="1280" y="190" as="targetPoint" />
          </mxGeometry>
        </mxCell>
        <mxCell id="9YMQOicb1sSqykPRnoGo-46" value="Содержит" style="edgeLabel;html=1;align=center;verticalAlign=middle;resizable=0;points=[];" parent="9YMQOicb1sSqykPRnoGo-35" vertex="1" connectable="0">
          <mxGeometry x="-0.0857" relative="1" as="geometry">
            <mxPoint as="offset" />
          </mxGeometry>
        </mxCell>
        <mxCell id="9YMQOicb1sSqykPRnoGo-37" value="Парковка" style="swimlane;childLayout=stackLayout;horizontal=1;startSize=50;horizontalStack=0;rounded=1;fontSize=14;fontStyle=0;strokeWidth=2;resizeParent=0;resizeLast=1;shadow=0;dashed=0;align=center;arcSize=4;whiteSpace=wrap;html=1;" parent="1" vertex="1">
          <mxGeometry x="545" y="160" width="170" height="150" as="geometry" />
        </mxCell>
        <mxCell id="9YMQOicb1sSqykPRnoGo-38" value="&lt;div&gt;*Номер&lt;/div&gt;Номер места&lt;div&gt;Подномер места&lt;/div&gt;&lt;div&gt;Размер подномера места&lt;/div&gt;&lt;div&gt;&lt;br&gt;&lt;/div&gt;" style="align=left;strokeColor=none;fillColor=none;spacingLeft=4;spacingRight=4;fontSize=12;verticalAlign=top;resizable=0;rotatable=0;part=1;html=1;whiteSpace=wrap;" parent="9YMQOicb1sSqykPRnoGo-37" vertex="1">
          <mxGeometry y="50" width="170" height="100" as="geometry" />
        </mxCell>
        <mxCell id="9YMQOicb1sSqykPRnoGo-44" value="" style="edgeStyle=entityRelationEdgeStyle;fontSize=12;html=1;endArrow=ERmandOne;startArrow=ERmandOne;rounded=0;exitX=1;exitY=0.5;exitDx=0;exitDy=0;entryX=-0.025;entryY=0.44;entryDx=0;entryDy=0;entryPerimeter=0;endFill=0;startFill=0;" parent="1" source="9YMQOicb1sSqykPRnoGo-38" edge="1">
          <mxGeometry width="100" height="100" relative="1" as="geometry">
            <mxPoint x="700" y="622.25" as="sourcePoint" />
            <mxPoint x="786" y="439.9999999999998" as="targetPoint" />
          </mxGeometry>
        </mxCell>
        <mxCell id="9YMQOicb1sSqykPRnoGo-45" value="Включает" style="edgeLabel;html=1;align=center;verticalAlign=middle;resizable=0;points=[];" parent="9YMQOicb1sSqykPRnoGo-44" vertex="1" connectable="0">
          <mxGeometry x="0.1088" relative="1" as="geometry">
            <mxPoint as="offset" />
          </mxGeometry>
        </mxCell>
        <mxCell id="9YMQOicb1sSqykPRnoGo-55" value="Сессия стоянки" style="swimlane;childLayout=stackLayout;horizontal=1;startSize=50;horizontalStack=0;rounded=1;fontSize=14;fontStyle=0;strokeWidth=2;resizeParent=0;resizeLast=1;shadow=0;dashed=0;align=center;arcSize=4;whiteSpace=wrap;html=1;" parent="1" vertex="1">
          <mxGeometry x="1260" y="10" width="180" height="230" as="geometry" />
        </mxCell>
        <mxCell id="9YMQOicb1sSqykPRnoGo-56" value="&lt;div&gt;*Номер сессии&lt;/div&gt;*Государственный номер&lt;div&gt;*Номер тарифа&lt;br&gt;Дата и время начала сессии стоянки&lt;/div&gt;&lt;div&gt;Дата и время окончания сессии стоянки&lt;/div&gt;&lt;div&gt;Длительность сессии стоянки&lt;/div&gt;&lt;div&gt;Тип средства&lt;/div&gt;&lt;div&gt;Стоимость&lt;/div&gt;" style="align=left;strokeColor=none;fillColor=none;spacingLeft=4;spacingRight=4;fontSize=12;verticalAlign=top;resizable=0;rotatable=0;part=1;html=1;whiteSpace=wrap;" parent="9YMQOicb1sSqykPRnoGo-55" vertex="1">
          <mxGeometry y="50" width="180" height="180" as="geometry" />
        </mxCell>
        <mxCell id="9YMQOicb1sSqykPRnoGo-57" value="" style="edgeStyle=orthogonalEdgeStyle;fontSize=12;html=1;endArrow=ERmandOne;startArrow=ERoneToMany;rounded=0;entryX=0.001;entryY=0.118;entryDx=0;entryDy=0;entryPerimeter=0;exitX=0.994;exitY=0.089;exitDx=0;exitDy=0;exitPerimeter=0;endFill=0;" parent="1" source="9YMQOicb1sSqykPRnoGo-15" target="9YMQOicb1sSqykPRnoGo-56" edge="1">
          <mxGeometry width="100" height="100" relative="1" as="geometry">
            <mxPoint x="1191" y="230" as="sourcePoint" />
            <mxPoint x="1200" y="60" as="targetPoint" />
          </mxGeometry>
        </mxCell>
        <mxCell id="9YMQOicb1sSqykPRnoGo-63" value="Содержит" style="edgeLabel;html=1;align=center;verticalAlign=middle;resizable=0;points=[];" parent="9YMQOicb1sSqykPRnoGo-57" vertex="1" connectable="0">
          <mxGeometry x="-0.1029" y="1" relative="1" as="geometry">
            <mxPoint as="offset" />
          </mxGeometry>
        </mxCell>
        <mxCell id="9YMQOicb1sSqykPRnoGo-58" value="" style="edgeStyle=orthogonalEdgeStyle;fontSize=12;html=1;endArrow=ERmandOne;startArrow=ERzeroToMany;rounded=0;entryX=0;entryY=0.5;entryDx=0;entryDy=0;exitX=1;exitY=0.5;exitDx=0;exitDy=0;endFill=0;startFill=0;" parent="1" source="9YMQOicb1sSqykPRnoGo-55" target="9YMQOicb1sSqykPRnoGo-17" edge="1">
          <mxGeometry width="100" height="100" relative="1" as="geometry">
            <mxPoint x="1230" y="250" as="sourcePoint" />
            <mxPoint x="1330" y="150" as="targetPoint" />
          </mxGeometry>
        </mxCell>
        <mxCell id="9YMQOicb1sSqykPRnoGo-62" value="Содержит" style="edgeLabel;html=1;align=center;verticalAlign=middle;resizable=0;points=[];" parent="9YMQOicb1sSqykPRnoGo-58" vertex="1" connectable="0">
          <mxGeometry x="-0.038" y="1" relative="1" as="geometry">
            <mxPoint as="offset" />
          </mxGeometry>
        </mxCell>
        <mxCell id="VriDZGMpJiA676CYL3SG-1" value="&quot;Парковка&quot; - это справочник, т.е. он содержит разметку всей парковки (номера парковочных мест)&lt;div&gt;&lt;br&gt;&lt;/div&gt;&lt;div&gt;Я сюда попыталась запихнуть, что место размером L содержит другие места (подномер парковочного места)&lt;/div&gt;" style="shape=note;whiteSpace=wrap;html=1;backgroundOutline=1;darkOpacity=0.05;fillColor=#fff2cc;strokeColor=#d6b656;" parent="1" vertex="1">
          <mxGeometry x="430" y="540" width="160" height="200" as="geometry" />
        </mxCell>
        <mxCell id="VriDZGMpJiA676CYL3SG-2" value="&quot;Вместимость места&quot; - это справочник, он содержит инфу, что S - мотоцикл, M - л/а, L - гр/а" style="shape=note;whiteSpace=wrap;html=1;backgroundOutline=1;darkOpacity=0.05;fillColor=#fff2cc;strokeColor=#d6b656;" parent="1" vertex="1">
          <mxGeometry x="440" y="-70" width="130" height="110" as="geometry" />
        </mxCell>
        <mxCell id="VriDZGMpJiA676CYL3SG-3" value="&quot;Парковочное место&quot; совмещает конкретный № парковочного места (подномер) и его размер" style="shape=note;whiteSpace=wrap;html=1;backgroundOutline=1;darkOpacity=0.05;fillColor=#fff2cc;strokeColor=#d6b656;" parent="1" vertex="1">
          <mxGeometry x="840" y="505" width="130" height="160" as="geometry" />
        </mxCell>
        <mxCell id="VriDZGMpJiA676CYL3SG-4" value="" style="rounded=0;whiteSpace=wrap;html=1;" parent="1" vertex="1">
          <mxGeometry x="320" y="820" width="350" height="310" as="geometry" />
        </mxCell>
        <mxCell id="VriDZGMpJiA676CYL3SG-5" value="" style="endArrow=none;html=1;rounded=0;exitX=0.008;exitY=0.213;exitDx=0;exitDy=0;exitPerimeter=0;entryX=1.005;entryY=0.209;entryDx=0;entryDy=0;entryPerimeter=0;" parent="1" edge="1">
          <mxGeometry width="50" height="50" relative="1" as="geometry">
            <mxPoint x="320.00000000000006" y="901.2399999999998" as="sourcePoint" />
            <mxPoint x="668.9499999999998" y="900" as="targetPoint" />
          </mxGeometry>
        </mxCell>
        <mxCell id="VriDZGMpJiA676CYL3SG-6" value="" style="endArrow=none;html=1;rounded=0;exitX=0.008;exitY=0.213;exitDx=0;exitDy=0;exitPerimeter=0;entryX=1.005;entryY=0.209;entryDx=0;entryDy=0;entryPerimeter=0;" parent="1" edge="1">
          <mxGeometry width="50" height="50" relative="1" as="geometry">
            <mxPoint x="321" y="975.5" as="sourcePoint" />
            <mxPoint x="670" y="974.5" as="targetPoint" />
          </mxGeometry>
        </mxCell>
        <mxCell id="VriDZGMpJiA676CYL3SG-7" value="" style="endArrow=none;html=1;rounded=0;exitX=0.008;exitY=0.213;exitDx=0;exitDy=0;exitPerimeter=0;entryX=1.005;entryY=0.209;entryDx=0;entryDy=0;entryPerimeter=0;" parent="1" edge="1">
          <mxGeometry width="50" height="50" relative="1" as="geometry">
            <mxPoint x="320" y="1061" as="sourcePoint" />
            <mxPoint x="669" y="1060" as="targetPoint" />
          </mxGeometry>
        </mxCell>
        <mxCell id="VriDZGMpJiA676CYL3SG-8" value="" style="endArrow=none;html=1;rounded=0;entryX=0.269;entryY=0.008;entryDx=0;entryDy=0;entryPerimeter=0;exitX=0.269;exitY=1;exitDx=0;exitDy=0;exitPerimeter=0;" parent="1" edge="1">
          <mxGeometry width="50" height="50" relative="1" as="geometry">
            <mxPoint x="410" y="1127.52" as="sourcePoint" />
            <mxPoint x="410" y="819.9999999999995" as="targetPoint" />
          </mxGeometry>
        </mxCell>
        <mxCell id="VriDZGMpJiA676CYL3SG-9" value="" style="endArrow=none;html=1;rounded=0;entryX=0.269;entryY=0.008;entryDx=0;entryDy=0;entryPerimeter=0;exitX=0.269;exitY=1;exitDx=0;exitDy=0;exitPerimeter=0;" parent="1" edge="1">
          <mxGeometry width="50" height="50" relative="1" as="geometry">
            <mxPoint x="500" y="1130" as="sourcePoint" />
            <mxPoint x="500" y="822" as="targetPoint" />
          </mxGeometry>
        </mxCell>
        <mxCell id="VriDZGMpJiA676CYL3SG-10" value="" style="endArrow=none;html=1;rounded=0;entryX=0.269;entryY=0.008;entryDx=0;entryDy=0;entryPerimeter=0;exitX=0.269;exitY=1;exitDx=0;exitDy=0;exitPerimeter=0;" parent="1" edge="1">
          <mxGeometry width="50" height="50" relative="1" as="geometry">
            <mxPoint x="590" y="1130" as="sourcePoint" />
            <mxPoint x="590" y="822" as="targetPoint" />
          </mxGeometry>
        </mxCell>
        <mxCell id="VriDZGMpJiA676CYL3SG-12" value="парковка в моем представлении))" style="text;html=1;align=center;verticalAlign=middle;whiteSpace=wrap;rounded=0;" parent="1" vertex="1">
          <mxGeometry x="360" y="780" width="260" height="30" as="geometry" />
        </mxCell>
        <mxCell id="VriDZGMpJiA676CYL3SG-13" value="1.1.S" style="text;html=1;align=center;verticalAlign=middle;whiteSpace=wrap;rounded=0;" parent="1" vertex="1">
          <mxGeometry x="330" y="840" width="60" height="30" as="geometry" />
        </mxCell>
        <mxCell id="VriDZGMpJiA676CYL3SG-14" value="1.2.S" style="text;html=1;align=center;verticalAlign=middle;whiteSpace=wrap;rounded=0;" parent="1" vertex="1">
          <mxGeometry x="420" y="845" width="60" height="30" as="geometry" />
        </mxCell>
        <mxCell id="VriDZGMpJiA676CYL3SG-16" value="1.4.S" style="text;html=1;align=center;verticalAlign=middle;whiteSpace=wrap;rounded=0;" parent="1" vertex="1">
          <mxGeometry x="430" y="920" width="60" height="30" as="geometry" />
        </mxCell>
        <mxCell id="VriDZGMpJiA676CYL3SG-17" value="2.1.S" style="text;html=1;align=center;verticalAlign=middle;whiteSpace=wrap;rounded=0;" parent="1" vertex="1">
          <mxGeometry x="330" y="1010" width="60" height="30" as="geometry" />
        </mxCell>
        <mxCell id="VriDZGMpJiA676CYL3SG-18" value="2.2.S" style="text;html=1;align=center;verticalAlign=middle;whiteSpace=wrap;rounded=0;" parent="1" vertex="1">
          <mxGeometry x="430" y="1010" width="60" height="30" as="geometry" />
        </mxCell>
        <mxCell id="VriDZGMpJiA676CYL3SG-19" value="2.3.S" style="text;html=1;align=center;verticalAlign=middle;whiteSpace=wrap;rounded=0;" parent="1" vertex="1">
          <mxGeometry x="340" y="1080" width="60" height="30" as="geometry" />
        </mxCell>
        <mxCell id="VriDZGMpJiA676CYL3SG-20" value="2.1.S" style="text;html=1;align=center;verticalAlign=middle;whiteSpace=wrap;rounded=0;" parent="1" vertex="1">
          <mxGeometry x="430" y="1080" width="60" height="30" as="geometry" />
        </mxCell>
        <mxCell id="VriDZGMpJiA676CYL3SG-21" value="Я себе представила, что вся парковка будет размечена следующим образом:&amp;nbsp; 1.1.S - подномер парковочного места (точный № места), тогда 1.1.S + 1.2.S = 1.1.M,&amp;nbsp;&lt;div&gt;1.3.S + 1.4.S = 1.2. M, тогда 1.1.M + 1.2. M = 1.1.L.&amp;nbsp;&lt;/div&gt;&lt;div&gt;&lt;br&gt;&lt;/div&gt;&lt;div&gt;получаеся, если на парковочное место №&amp;nbsp;&lt;span style=&quot;background-color: transparent; color: light-dark(rgb(0, 0, 0), rgb(255, 255, 255));&quot;&gt;1.1.S заехал мотоцикл, то на парковочное место №&amp;nbsp;&lt;/span&gt;&lt;span style=&quot;background-color: transparent; color: light-dark(rgb(0, 0, 0), rgb(255, 255, 255));&quot;&gt;1.1.M легковой автомобиль не поместиться, т.е. у места №&amp;nbsp;&lt;/span&gt;&lt;span style=&quot;background-color: transparent; color: light-dark(rgb(0, 0, 0), rgb(255, 255, 255));&quot;&gt;1.1.M будет статус &quot;занят&quot;&lt;/span&gt;&lt;/div&gt;&lt;div&gt;&lt;span style=&quot;background-color: transparent; color: light-dark(rgb(0, 0, 0), rgb(255, 255, 255));&quot;&gt;&lt;br&gt;&lt;/span&gt;&lt;/div&gt;&lt;div&gt;&lt;span style=&quot;background-color: transparent; color: light-dark(rgb(0, 0, 0), rgb(255, 255, 255));&quot;&gt;Синим прямоугольником я выделила парковочное место № 1 размером L&lt;/span&gt;&lt;/div&gt;&lt;div&gt;&lt;span style=&quot;background-color: transparent; color: light-dark(rgb(0, 0, 0), rgb(255, 255, 255));&quot;&gt;&lt;br&gt;&lt;/span&gt;&lt;/div&gt;&lt;div&gt;Зеленый прямоугольник - парковочное место размером М&lt;/div&gt;" style="text;html=1;align=center;verticalAlign=middle;whiteSpace=wrap;rounded=0;" parent="1" vertex="1">
          <mxGeometry x="50" y="820" width="250" height="270" as="geometry" />
        </mxCell>
        <mxCell id="VriDZGMpJiA676CYL3SG-22" value="3.1.S" style="text;html=1;align=center;verticalAlign=middle;whiteSpace=wrap;rounded=0;" parent="1" vertex="1">
          <mxGeometry x="520" y="840" width="60" height="30" as="geometry" />
        </mxCell>
        <mxCell id="VriDZGMpJiA676CYL3SG-23" value="3.2.S" style="text;html=1;align=center;verticalAlign=middle;whiteSpace=wrap;rounded=0;" parent="1" vertex="1">
          <mxGeometry x="600" y="845" width="60" height="30" as="geometry" />
        </mxCell>
        <mxCell id="VriDZGMpJiA676CYL3SG-24" value="3.3.S" style="text;html=1;align=center;verticalAlign=middle;whiteSpace=wrap;rounded=0;" parent="1" vertex="1">
          <mxGeometry x="520" y="920" width="60" height="30" as="geometry" />
        </mxCell>
        <mxCell id="VriDZGMpJiA676CYL3SG-25" value="3.4.S" style="text;html=1;align=center;verticalAlign=middle;whiteSpace=wrap;rounded=0;" parent="1" vertex="1">
          <mxGeometry x="600" y="920" width="60" height="30" as="geometry" />
        </mxCell>
        <mxCell id="VriDZGMpJiA676CYL3SG-26" value="4.1.S" style="text;html=1;align=center;verticalAlign=middle;whiteSpace=wrap;rounded=0;" parent="1" vertex="1">
          <mxGeometry x="520" y="1010" width="60" height="30" as="geometry" />
        </mxCell>
        <mxCell id="VriDZGMpJiA676CYL3SG-27" value="4.2.S" style="text;html=1;align=center;verticalAlign=middle;whiteSpace=wrap;rounded=0;" parent="1" vertex="1">
          <mxGeometry x="600" y="1010" width="60" height="30" as="geometry" />
        </mxCell>
        <mxCell id="VriDZGMpJiA676CYL3SG-28" value="4.3.S" style="text;html=1;align=center;verticalAlign=middle;whiteSpace=wrap;rounded=0;" parent="1" vertex="1">
          <mxGeometry x="520" y="1080" width="60" height="30" as="geometry" />
        </mxCell>
        <mxCell id="VriDZGMpJiA676CYL3SG-29" value="4.4.S" style="text;html=1;align=center;verticalAlign=middle;whiteSpace=wrap;rounded=0;" parent="1" vertex="1">
          <mxGeometry x="600" y="1080" width="60" height="30" as="geometry" />
        </mxCell>
        <mxCell id="VriDZGMpJiA676CYL3SG-30" value="" style="swimlane;startSize=0;strokeColor=light-dark(#363bd3, #ededed);" parent="1" vertex="1">
          <mxGeometry x="320" y="820" width="180" height="150" as="geometry" />
        </mxCell>
        <mxCell id="VriDZGMpJiA676CYL3SG-31" value="" style="swimlane;startSize=0;strokeColor=light-dark(#2edc4b, #ededed);" parent="VriDZGMpJiA676CYL3SG-30" vertex="1">
          <mxGeometry x="10" y="10" width="160" height="60" as="geometry" />
        </mxCell>
        <mxCell id="VriDZGMpJiA676CYL3SG-15" value="1.3.S" style="text;html=1;align=center;verticalAlign=middle;whiteSpace=wrap;rounded=0;strokeColor=none;" parent="VriDZGMpJiA676CYL3SG-30" vertex="1">
          <mxGeometry x="20" y="100" width="60" height="30" as="geometry" />
        </mxCell>
        <mxCell id="VriDZGMpJiA676CYL3SG-32" value="" style="swimlane;startSize=0;strokeColor=light-dark(#2edc4b, #ededed);" parent="VriDZGMpJiA676CYL3SG-30" vertex="1">
          <mxGeometry x="14" y="90" width="160" height="60" as="geometry" />
        </mxCell>
        <mxCell id="VriDZGMpJiA676CYL3SG-33" value="Можно ли сделать, что подномер 1.1.M становится номером места?" style="shape=note;whiteSpace=wrap;html=1;backgroundOutline=1;darkOpacity=0.05;fillColor=#fad9d5;strokeColor=#ae4132;" parent="1" vertex="1">
          <mxGeometry x="630" y="480" width="100" height="140" as="geometry" />
        </mxCell>
        <mxCell id="mmMKXpOEEhn8lP42BpC1-1" value="Привет!)))&lt;br&gt;Тань, спасибо, что уделяешь время на дополнительные задания!))&lt;br&gt;Мне понравилось это задание, было интересно))&lt;br&gt;&lt;br&gt;У меня вот только никак не получается разобраться с парковочными местами и их статусами((&amp;nbsp;&lt;br&gt;Никак не могу понять как сделать матрешку из парковочных мест)" style="shape=note;whiteSpace=wrap;html=1;backgroundOutline=1;darkOpacity=0.05;fillColor=#dae8fc;strokeColor=#6c8ebf;" parent="1" vertex="1">
          <mxGeometry x="785" y="750" width="240" height="310" as="geometry" />
        </mxCell>
      </root>
    </mxGraphModel>
  </diagram>
  <diagram name="Копия Страница — 1" id="0Xf8u0UNUKG_akEAO9gh">
    <mxGraphModel dx="1254" dy="2175" grid="1" gridSize="10" guides="1" tooltips="1" connect="1" arrows="1" fold="1" page="1" pageScale="1" pageWidth="827" pageHeight="1169" math="0" shadow="0">
      <root>
        <mxCell id="mDl54oqxt3nsEulQ3GVl-0" />
        <mxCell id="mDl54oqxt3nsEulQ3GVl-1" parent="mDl54oqxt3nsEulQ3GVl-0" />
        <mxCell id="mDl54oqxt3nsEulQ3GVl-2" value="&lt;meta charset=&quot;utf-8&quot;&gt;&lt;span style=&quot;color: rgb(50, 52, 55); font-family: system-ui, sans-serif, &amp;quot;Apple Color Emoji&amp;quot;, &amp;quot;Segoe UI Emoji&amp;quot;, &amp;quot;Segoe UI Symbol&amp;quot;, &amp;quot;Noto Color Emoji&amp;quot;; font-size: 14px; font-style: normal; font-variant-ligatures: normal; font-variant-caps: normal; font-weight: 400; letter-spacing: normal; orphans: 2; text-align: start; text-indent: 0px; text-transform: none; widows: 2; word-spacing: 0px; -webkit-text-stroke-width: 0px; white-space: break-spaces; background-color: rgb(248, 249, 252); text-decoration-thickness: initial; text-decoration-style: initial; text-decoration-color: initial; display: inline !important; float: none;&quot;&gt;КЕЙС 2. Парковка &#xa;На парковке доступно определённое количество мест. Они могут быть 3х размеров — S, M и L. На парковку заезжают транспортные средства разных типов — мотоциклы, легковые автомобили и грузовые. Они занимают места следующим образом: S — помещается один мотоцикл M — два мотоцикла или одна легковушка L — 4 мотоцикла, 2 легковушки или один грузовичок Паркинг должен показывать количество свободных мест всех типов. При въезде транспортного средства ему нужно указать, на какое место встать. Чем плотнее заставлена парковка — тем лучше. Для каждого транспортного средства своя ставка. Также прайс зависит от времени стоянки. Например, для легкового автомобиля: 💲 первые 10 минут — бесплатно &#xa;💲 следующие 50 минут — 300 рублей &#xa;💲 1-3 час — 250 рублей в час &#xa;💲 3 час и далее — 200 рублей в час Оплата считается, когда транспортное средство покидает парковку.&lt;/span&gt;" style="whiteSpace=wrap;html=1;aspect=fixed;fillColor=#dae8fc;strokeColor=#6c8ebf;" vertex="1" parent="mDl54oqxt3nsEulQ3GVl-1">
          <mxGeometry x="40" y="40" width="370" height="370" as="geometry" />
        </mxCell>
        <mxCell id="mDl54oqxt3nsEulQ3GVl-3" value="Тип транспортного средства" style="swimlane;childLayout=stackLayout;horizontal=1;startSize=50;horizontalStack=0;rounded=1;fontSize=14;fontStyle=0;strokeWidth=2;resizeParent=0;resizeLast=1;shadow=0;dashed=0;align=center;arcSize=4;whiteSpace=wrap;html=1;" vertex="1" parent="mDl54oqxt3nsEulQ3GVl-1">
          <mxGeometry x="860" y="-150" width="150" height="120" as="geometry" />
        </mxCell>
        <mxCell id="mDl54oqxt3nsEulQ3GVl-4" value="*Номер&lt;div&gt;Тип средства&lt;/div&gt;" style="align=left;strokeColor=none;fillColor=none;spacingLeft=4;spacingRight=4;fontSize=12;verticalAlign=top;resizable=0;rotatable=0;part=1;html=1;whiteSpace=wrap;" vertex="1" parent="mDl54oqxt3nsEulQ3GVl-3">
          <mxGeometry y="50" width="150" height="70" as="geometry" />
        </mxCell>
        <mxCell id="mDl54oqxt3nsEulQ3GVl-5" value="Вместимость места" style="swimlane;childLayout=stackLayout;horizontal=1;startSize=50;horizontalStack=0;rounded=1;fontSize=14;fontStyle=0;strokeWidth=2;resizeParent=0;resizeLast=1;shadow=0;dashed=0;align=center;arcSize=4;whiteSpace=wrap;html=1;" vertex="1" parent="mDl54oqxt3nsEulQ3GVl-1">
          <mxGeometry x="580" y="-30" width="160" height="120" as="geometry" />
        </mxCell>
        <mxCell id="mDl54oqxt3nsEulQ3GVl-6" value="*Номер&lt;div&gt;*Размер&lt;/div&gt;&lt;div&gt;Тип средства&lt;/div&gt;" style="align=left;strokeColor=none;fillColor=none;spacingLeft=4;spacingRight=4;fontSize=12;verticalAlign=top;resizable=0;rotatable=0;part=1;html=1;whiteSpace=wrap;" vertex="1" parent="mDl54oqxt3nsEulQ3GVl-5">
          <mxGeometry y="50" width="160" height="70" as="geometry" />
        </mxCell>
        <mxCell id="mDl54oqxt3nsEulQ3GVl-7" value="Парковочное место" style="swimlane;childLayout=stackLayout;horizontal=1;startSize=50;horizontalStack=0;rounded=1;fontSize=14;fontStyle=0;strokeWidth=2;resizeParent=0;resizeLast=1;shadow=0;dashed=0;align=center;arcSize=4;whiteSpace=wrap;html=1;" vertex="1" parent="mDl54oqxt3nsEulQ3GVl-1">
          <mxGeometry x="810" y="270" width="160" height="150" as="geometry" />
        </mxCell>
        <mxCell id="mDl54oqxt3nsEulQ3GVl-8" value="*Номер места&lt;div&gt;&lt;div&gt;Размер места&lt;/div&gt;&lt;div&gt;Тип средства&lt;/div&gt;&lt;div&gt;Статус места&lt;/div&gt;&lt;/div&gt;" style="align=left;strokeColor=none;fillColor=none;spacingLeft=4;spacingRight=4;fontSize=12;verticalAlign=top;resizable=0;rotatable=0;part=1;html=1;whiteSpace=wrap;" vertex="1" parent="mDl54oqxt3nsEulQ3GVl-7">
          <mxGeometry y="50" width="160" height="100" as="geometry" />
        </mxCell>
        <mxCell id="mDl54oqxt3nsEulQ3GVl-9" value="Статус" style="swimlane;childLayout=stackLayout;horizontal=1;startSize=50;horizontalStack=0;rounded=1;fontSize=14;fontStyle=0;strokeWidth=2;resizeParent=0;resizeLast=1;shadow=0;dashed=0;align=center;arcSize=4;whiteSpace=wrap;html=1;" vertex="1" parent="mDl54oqxt3nsEulQ3GVl-1">
          <mxGeometry x="1070" y="370" width="160" height="120" as="geometry" />
        </mxCell>
        <mxCell id="mDl54oqxt3nsEulQ3GVl-10" value="*Номер&lt;div&gt;Статус&lt;/div&gt;" style="align=left;strokeColor=none;fillColor=none;spacingLeft=4;spacingRight=4;fontSize=12;verticalAlign=top;resizable=0;rotatable=0;part=1;html=1;whiteSpace=wrap;" vertex="1" parent="mDl54oqxt3nsEulQ3GVl-9">
          <mxGeometry y="50" width="160" height="70" as="geometry" />
        </mxCell>
        <mxCell id="mDl54oqxt3nsEulQ3GVl-11" value="Транспортное&lt;div&gt;&amp;nbsp;средство&lt;/div&gt;" style="swimlane;childLayout=stackLayout;horizontal=1;startSize=50;horizontalStack=0;rounded=1;fontSize=14;fontStyle=0;strokeWidth=2;resizeParent=0;resizeLast=1;shadow=0;dashed=0;align=center;arcSize=4;whiteSpace=wrap;html=1;" vertex="1" parent="mDl54oqxt3nsEulQ3GVl-1">
          <mxGeometry x="1010" y="125" width="170" height="150" as="geometry" />
        </mxCell>
        <mxCell id="mDl54oqxt3nsEulQ3GVl-12" value="*Государственный номер&lt;div&gt;Тип средства&lt;/div&gt;" style="align=left;strokeColor=none;fillColor=none;spacingLeft=4;spacingRight=4;fontSize=12;verticalAlign=top;resizable=0;rotatable=0;part=1;html=1;whiteSpace=wrap;" vertex="1" parent="mDl54oqxt3nsEulQ3GVl-11">
          <mxGeometry y="50" width="170" height="100" as="geometry" />
        </mxCell>
        <mxCell id="mDl54oqxt3nsEulQ3GVl-13" value="Тариф" style="swimlane;childLayout=stackLayout;horizontal=1;startSize=50;horizontalStack=0;rounded=1;fontSize=14;fontStyle=0;strokeWidth=2;resizeParent=0;resizeLast=1;shadow=0;dashed=0;align=center;arcSize=4;whiteSpace=wrap;html=1;" vertex="1" parent="mDl54oqxt3nsEulQ3GVl-1">
          <mxGeometry x="1530" y="-160" width="160" height="140" as="geometry" />
        </mxCell>
        <mxCell id="mDl54oqxt3nsEulQ3GVl-14" value="*Номер тарифа&lt;div&gt;Описание&lt;br&gt;&lt;div&gt;Стоимость&lt;/div&gt;&lt;div&gt;Тип средства&lt;/div&gt;&lt;div&gt;Время стоянки&lt;/div&gt;&lt;/div&gt;" style="align=left;strokeColor=none;fillColor=none;spacingLeft=4;spacingRight=4;fontSize=12;verticalAlign=top;resizable=0;rotatable=0;part=1;html=1;whiteSpace=wrap;" vertex="1" parent="mDl54oqxt3nsEulQ3GVl-13">
          <mxGeometry y="50" width="160" height="90" as="geometry" />
        </mxCell>
        <mxCell id="mDl54oqxt3nsEulQ3GVl-15" value="Оплата" style="swimlane;childLayout=stackLayout;horizontal=1;startSize=50;horizontalStack=0;rounded=1;fontSize=14;fontStyle=0;strokeWidth=2;resizeParent=0;resizeLast=1;shadow=0;dashed=0;align=center;arcSize=4;whiteSpace=wrap;html=1;" vertex="1" parent="mDl54oqxt3nsEulQ3GVl-1">
          <mxGeometry x="1640" y="90" width="170" height="120" as="geometry" />
        </mxCell>
        <mxCell id="mDl54oqxt3nsEulQ3GVl-16" value="*Номер чека&lt;div&gt;&lt;div&gt;Сумма&lt;/div&gt;&lt;div&gt;Дата и время оплаты&lt;/div&gt;&lt;/div&gt;" style="align=left;strokeColor=none;fillColor=none;spacingLeft=4;spacingRight=4;fontSize=12;verticalAlign=top;resizable=0;rotatable=0;part=1;html=1;whiteSpace=wrap;" vertex="1" parent="mDl54oqxt3nsEulQ3GVl-15">
          <mxGeometry y="50" width="170" height="70" as="geometry" />
        </mxCell>
        <mxCell id="mDl54oqxt3nsEulQ3GVl-17" value="" style="edgeStyle=entityRelationEdgeStyle;fontSize=12;html=1;endArrow=ERmandOne;endFill=0;rounded=0;entryX=0;entryY=0.25;entryDx=0;entryDy=0;exitX=0.994;exitY=0.157;exitDx=0;exitDy=0;exitPerimeter=0;startArrow=ERmandOne;startFill=0;" edge="1" parent="mDl54oqxt3nsEulQ3GVl-1" source="mDl54oqxt3nsEulQ3GVl-6" target="mDl54oqxt3nsEulQ3GVl-4">
          <mxGeometry width="100" height="100" relative="1" as="geometry">
            <mxPoint x="690" y="340" as="sourcePoint" />
            <mxPoint x="790" y="240" as="targetPoint" />
          </mxGeometry>
        </mxCell>
        <mxCell id="mDl54oqxt3nsEulQ3GVl-18" value="Содержит" style="edgeLabel;html=1;align=center;verticalAlign=middle;resizable=0;points=[];" vertex="1" connectable="0" parent="mDl54oqxt3nsEulQ3GVl-17">
          <mxGeometry x="0.0535" relative="1" as="geometry">
            <mxPoint as="offset" />
          </mxGeometry>
        </mxCell>
        <mxCell id="mDl54oqxt3nsEulQ3GVl-19" value="" style="edgeStyle=orthogonalEdgeStyle;fontSize=12;html=1;endArrow=ERoneToMany;startArrow=ERmandOne;rounded=0;exitX=1;exitY=0.5;exitDx=0;exitDy=0;entryX=1;entryY=0.25;entryDx=0;entryDy=0;endFill=0;" edge="1" parent="mDl54oqxt3nsEulQ3GVl-1" source="mDl54oqxt3nsEulQ3GVl-6" target="mDl54oqxt3nsEulQ3GVl-32">
          <mxGeometry width="100" height="100" relative="1" as="geometry">
            <mxPoint x="690" y="440" as="sourcePoint" />
            <mxPoint x="790" y="340" as="targetPoint" />
          </mxGeometry>
        </mxCell>
        <mxCell id="mDl54oqxt3nsEulQ3GVl-20" value="" style="edgeStyle=entityRelationEdgeStyle;fontSize=12;html=1;endArrow=ERmandOne;startArrow=ERoneToMany;rounded=0;entryX=0;entryY=0.25;entryDx=0;entryDy=0;exitX=1;exitY=0.5;exitDx=0;exitDy=0;endFill=0;startFill=0;" edge="1" parent="mDl54oqxt3nsEulQ3GVl-1" source="mDl54oqxt3nsEulQ3GVl-8" target="mDl54oqxt3nsEulQ3GVl-10">
          <mxGeometry width="100" height="100" relative="1" as="geometry">
            <mxPoint x="987" y="370" as="sourcePoint" />
            <mxPoint x="1087" y="270" as="targetPoint" />
          </mxGeometry>
        </mxCell>
        <mxCell id="mDl54oqxt3nsEulQ3GVl-21" value="Находится" style="edgeLabel;html=1;align=center;verticalAlign=middle;resizable=0;points=[];" vertex="1" connectable="0" parent="mDl54oqxt3nsEulQ3GVl-20">
          <mxGeometry x="-0.0811" y="-1" relative="1" as="geometry">
            <mxPoint as="offset" />
          </mxGeometry>
        </mxCell>
        <mxCell id="mDl54oqxt3nsEulQ3GVl-22" value="" style="fontSize=12;html=1;endArrow=ERoneToMany;startArrow=ERmandOne;rounded=0;entryX=-0.018;entryY=0.15;entryDx=0;entryDy=0;entryPerimeter=0;exitX=1;exitY=0.357;exitDx=0;exitDy=0;exitPerimeter=0;endFill=0;edgeStyle=orthogonalEdgeStyle;" edge="1" parent="mDl54oqxt3nsEulQ3GVl-1" source="mDl54oqxt3nsEulQ3GVl-4" target="mDl54oqxt3nsEulQ3GVl-12">
          <mxGeometry width="100" height="100" relative="1" as="geometry">
            <mxPoint x="930" y="190" as="sourcePoint" />
            <mxPoint x="1030" y="90" as="targetPoint" />
            <Array as="points">
              <mxPoint x="1050" y="-75" />
              <mxPoint x="1050" y="73" />
              <mxPoint x="970" y="73" />
              <mxPoint x="970" y="190" />
            </Array>
          </mxGeometry>
        </mxCell>
        <mxCell id="mDl54oqxt3nsEulQ3GVl-23" value="Содержит" style="edgeLabel;html=1;align=center;verticalAlign=middle;resizable=0;points=[];" vertex="1" connectable="0" parent="mDl54oqxt3nsEulQ3GVl-22">
          <mxGeometry x="0.0968" y="-1" relative="1" as="geometry">
            <mxPoint as="offset" />
          </mxGeometry>
        </mxCell>
        <mxCell id="mDl54oqxt3nsEulQ3GVl-24" value="" style="edgeStyle=orthogonalEdgeStyle;fontSize=12;html=1;endArrow=ERoneToMany;endFill=0;rounded=0;exitX=1;exitY=0.5;exitDx=0;exitDy=0;entryX=-0.006;entryY=0.118;entryDx=0;entryDy=0;entryPerimeter=0;startArrow=ERmandOne;startFill=0;" edge="1" parent="mDl54oqxt3nsEulQ3GVl-1" source="mDl54oqxt3nsEulQ3GVl-36" target="mDl54oqxt3nsEulQ3GVl-16">
          <mxGeometry width="100" height="100" relative="1" as="geometry">
            <mxPoint x="1200" y="330" as="sourcePoint" />
            <mxPoint x="1300" y="230" as="targetPoint" />
          </mxGeometry>
        </mxCell>
        <mxCell id="mDl54oqxt3nsEulQ3GVl-25" value="Принадлежит" style="edgeLabel;html=1;align=center;verticalAlign=middle;resizable=0;points=[];" vertex="1" connectable="0" parent="mDl54oqxt3nsEulQ3GVl-24">
          <mxGeometry x="-0.0416" y="-1" relative="1" as="geometry">
            <mxPoint as="offset" />
          </mxGeometry>
        </mxCell>
        <mxCell id="mDl54oqxt3nsEulQ3GVl-26" value="" style="fontSize=12;html=1;endArrow=ERmandOne;startArrow=ERmandOne;rounded=0;entryX=0.42;entryY=1.013;entryDx=0;entryDy=0;entryPerimeter=0;exitX=1;exitY=0.25;exitDx=0;exitDy=0;endFill=0;startFill=0;edgeStyle=orthogonalEdgeStyle;" edge="1" parent="mDl54oqxt3nsEulQ3GVl-1" source="mDl54oqxt3nsEulQ3GVl-8" target="mDl54oqxt3nsEulQ3GVl-36">
          <mxGeometry width="100" height="100" relative="1" as="geometry">
            <mxPoint x="920" y="430" as="sourcePoint" />
            <mxPoint x="1020" y="330" as="targetPoint" />
          </mxGeometry>
        </mxCell>
        <mxCell id="mDl54oqxt3nsEulQ3GVl-27" value="Принадлежит" style="edgeLabel;html=1;align=center;verticalAlign=middle;resizable=0;points=[];" vertex="1" connectable="0" parent="mDl54oqxt3nsEulQ3GVl-26">
          <mxGeometry x="0.2743" y="4" relative="1" as="geometry">
            <mxPoint as="offset" />
          </mxGeometry>
        </mxCell>
        <mxCell id="mDl54oqxt3nsEulQ3GVl-29" value="" style="edgeStyle=entityRelationEdgeStyle;fontSize=12;html=1;endArrow=ERoneToMany;startArrow=ERmandOne;rounded=0;exitX=0.981;exitY=0.157;exitDx=0;exitDy=0;exitPerimeter=0;entryX=-0.006;entryY=0.157;entryDx=0;entryDy=0;entryPerimeter=0;endFill=0;startFill=0;" edge="1" parent="mDl54oqxt3nsEulQ3GVl-1" source="mDl54oqxt3nsEulQ3GVl-4" target="mDl54oqxt3nsEulQ3GVl-14">
          <mxGeometry width="100" height="100" relative="1" as="geometry">
            <mxPoint x="987" y="130" as="sourcePoint" />
            <mxPoint x="1280" y="190" as="targetPoint" />
          </mxGeometry>
        </mxCell>
        <mxCell id="mDl54oqxt3nsEulQ3GVl-30" value="Содержит" style="edgeLabel;html=1;align=center;verticalAlign=middle;resizable=0;points=[];" vertex="1" connectable="0" parent="mDl54oqxt3nsEulQ3GVl-29">
          <mxGeometry x="-0.0857" relative="1" as="geometry">
            <mxPoint as="offset" />
          </mxGeometry>
        </mxCell>
        <mxCell id="mDl54oqxt3nsEulQ3GVl-31" value="Парковка" style="swimlane;childLayout=stackLayout;horizontal=1;startSize=50;horizontalStack=0;rounded=1;fontSize=14;fontStyle=0;strokeWidth=2;resizeParent=0;resizeLast=1;shadow=0;dashed=0;align=center;arcSize=4;whiteSpace=wrap;html=1;" vertex="1" parent="mDl54oqxt3nsEulQ3GVl-1">
          <mxGeometry x="545" y="160" width="170" height="150" as="geometry" />
        </mxCell>
        <mxCell id="mDl54oqxt3nsEulQ3GVl-32" value="&lt;div&gt;*Номер&lt;/div&gt;Номер места&lt;div&gt;Размер места&lt;/div&gt;&lt;div&gt;Составное&lt;/div&gt;" style="align=left;strokeColor=none;fillColor=none;spacingLeft=4;spacingRight=4;fontSize=12;verticalAlign=top;resizable=0;rotatable=0;part=1;html=1;whiteSpace=wrap;" vertex="1" parent="mDl54oqxt3nsEulQ3GVl-31">
          <mxGeometry y="50" width="170" height="100" as="geometry" />
        </mxCell>
        <mxCell id="mDl54oqxt3nsEulQ3GVl-33" value="" style="edgeStyle=entityRelationEdgeStyle;fontSize=12;html=1;endArrow=ERmandOne;startArrow=ERmandOne;rounded=0;exitX=1;exitY=0.5;exitDx=0;exitDy=0;entryX=0;entryY=0.25;entryDx=0;entryDy=0;endFill=0;startFill=0;" edge="1" parent="mDl54oqxt3nsEulQ3GVl-1" source="mDl54oqxt3nsEulQ3GVl-32" target="mDl54oqxt3nsEulQ3GVl-8">
          <mxGeometry width="100" height="100" relative="1" as="geometry">
            <mxPoint x="700" y="622.25" as="sourcePoint" />
            <mxPoint x="786" y="439.9999999999998" as="targetPoint" />
          </mxGeometry>
        </mxCell>
        <mxCell id="mDl54oqxt3nsEulQ3GVl-34" value="Включает" style="edgeLabel;html=1;align=center;verticalAlign=middle;resizable=0;points=[];" vertex="1" connectable="0" parent="mDl54oqxt3nsEulQ3GVl-33">
          <mxGeometry x="0.1088" relative="1" as="geometry">
            <mxPoint as="offset" />
          </mxGeometry>
        </mxCell>
        <mxCell id="mDl54oqxt3nsEulQ3GVl-35" value="Сессия стоянки" style="swimlane;childLayout=stackLayout;horizontal=1;startSize=50;horizontalStack=0;rounded=1;fontSize=14;fontStyle=0;strokeWidth=2;resizeParent=0;resizeLast=1;shadow=0;dashed=0;align=center;arcSize=4;whiteSpace=wrap;html=1;" vertex="1" parent="mDl54oqxt3nsEulQ3GVl-1">
          <mxGeometry x="1260" y="10" width="180" height="230" as="geometry" />
        </mxCell>
        <mxCell id="mDl54oqxt3nsEulQ3GVl-36" value="&lt;div&gt;*Номер сессии&lt;/div&gt;*Государственный номер&lt;div&gt;*Номер тарифа&lt;br&gt;Дата и время начала сессии стоянки&lt;/div&gt;&lt;div&gt;Дата и время окончания сессии стоянки&lt;/div&gt;&lt;div&gt;Длительность сессии стоянки&lt;/div&gt;&lt;div&gt;Тип средства&lt;/div&gt;&lt;div&gt;Стоимость&lt;/div&gt;" style="align=left;strokeColor=none;fillColor=none;spacingLeft=4;spacingRight=4;fontSize=12;verticalAlign=top;resizable=0;rotatable=0;part=1;html=1;whiteSpace=wrap;" vertex="1" parent="mDl54oqxt3nsEulQ3GVl-35">
          <mxGeometry y="50" width="180" height="180" as="geometry" />
        </mxCell>
        <mxCell id="mDl54oqxt3nsEulQ3GVl-37" value="" style="edgeStyle=orthogonalEdgeStyle;fontSize=12;html=1;endArrow=ERmandOne;startArrow=ERoneToMany;rounded=0;entryX=0.001;entryY=0.118;entryDx=0;entryDy=0;entryPerimeter=0;exitX=0.994;exitY=0.089;exitDx=0;exitDy=0;exitPerimeter=0;endFill=0;" edge="1" parent="mDl54oqxt3nsEulQ3GVl-1" source="mDl54oqxt3nsEulQ3GVl-12" target="mDl54oqxt3nsEulQ3GVl-36">
          <mxGeometry width="100" height="100" relative="1" as="geometry">
            <mxPoint x="1191" y="230" as="sourcePoint" />
            <mxPoint x="1200" y="60" as="targetPoint" />
          </mxGeometry>
        </mxCell>
        <mxCell id="mDl54oqxt3nsEulQ3GVl-38" value="Содержит" style="edgeLabel;html=1;align=center;verticalAlign=middle;resizable=0;points=[];" vertex="1" connectable="0" parent="mDl54oqxt3nsEulQ3GVl-37">
          <mxGeometry x="-0.1029" y="1" relative="1" as="geometry">
            <mxPoint as="offset" />
          </mxGeometry>
        </mxCell>
        <mxCell id="mDl54oqxt3nsEulQ3GVl-39" value="" style="edgeStyle=orthogonalEdgeStyle;fontSize=12;html=1;endArrow=ERmandOne;startArrow=ERzeroToMany;rounded=0;entryX=0;entryY=0.5;entryDx=0;entryDy=0;exitX=1;exitY=0.5;exitDx=0;exitDy=0;endFill=0;startFill=0;" edge="1" parent="mDl54oqxt3nsEulQ3GVl-1" source="mDl54oqxt3nsEulQ3GVl-35" target="mDl54oqxt3nsEulQ3GVl-14">
          <mxGeometry width="100" height="100" relative="1" as="geometry">
            <mxPoint x="1230" y="250" as="sourcePoint" />
            <mxPoint x="1330" y="150" as="targetPoint" />
          </mxGeometry>
        </mxCell>
        <mxCell id="mDl54oqxt3nsEulQ3GVl-40" value="Содержит" style="edgeLabel;html=1;align=center;verticalAlign=middle;resizable=0;points=[];" vertex="1" connectable="0" parent="mDl54oqxt3nsEulQ3GVl-39">
          <mxGeometry x="-0.038" y="1" relative="1" as="geometry">
            <mxPoint as="offset" />
          </mxGeometry>
        </mxCell>
        <mxCell id="mDl54oqxt3nsEulQ3GVl-41" value="&quot;Парковка&quot; - это справочник, т.е. он содержит разметку всей парковки (номера парковочных мест)&lt;div&gt;&lt;br&gt;&lt;/div&gt;" style="shape=note;whiteSpace=wrap;html=1;backgroundOutline=1;darkOpacity=0.05;fillColor=#fff2cc;strokeColor=#d6b656;" vertex="1" parent="mDl54oqxt3nsEulQ3GVl-1">
          <mxGeometry x="420" y="320" width="160" height="120" as="geometry" />
        </mxCell>
        <mxCell id="mDl54oqxt3nsEulQ3GVl-42" value="&quot;Вместимость места&quot; - это справочник, он содержит инфу, что S - мотоцикл, M - л/а, L - гр/а" style="shape=note;whiteSpace=wrap;html=1;backgroundOutline=1;darkOpacity=0.05;fillColor=#fff2cc;strokeColor=#d6b656;" vertex="1" parent="mDl54oqxt3nsEulQ3GVl-1">
          <mxGeometry x="440" y="-70" width="130" height="110" as="geometry" />
        </mxCell>
        <mxCell id="mDl54oqxt3nsEulQ3GVl-44" value="" style="rounded=0;whiteSpace=wrap;html=1;" vertex="1" parent="mDl54oqxt3nsEulQ3GVl-1">
          <mxGeometry x="320" y="820" width="350" height="310" as="geometry" />
        </mxCell>
        <mxCell id="mDl54oqxt3nsEulQ3GVl-45" value="" style="endArrow=none;html=1;rounded=0;exitX=0.008;exitY=0.213;exitDx=0;exitDy=0;exitPerimeter=0;entryX=1.005;entryY=0.209;entryDx=0;entryDy=0;entryPerimeter=0;" edge="1" parent="mDl54oqxt3nsEulQ3GVl-1">
          <mxGeometry width="50" height="50" relative="1" as="geometry">
            <mxPoint x="320.00000000000006" y="901.2399999999998" as="sourcePoint" />
            <mxPoint x="668.9499999999998" y="900" as="targetPoint" />
          </mxGeometry>
        </mxCell>
        <mxCell id="mDl54oqxt3nsEulQ3GVl-46" value="" style="endArrow=none;html=1;rounded=0;exitX=0.008;exitY=0.213;exitDx=0;exitDy=0;exitPerimeter=0;entryX=1.005;entryY=0.209;entryDx=0;entryDy=0;entryPerimeter=0;" edge="1" parent="mDl54oqxt3nsEulQ3GVl-1">
          <mxGeometry width="50" height="50" relative="1" as="geometry">
            <mxPoint x="321" y="975.5" as="sourcePoint" />
            <mxPoint x="670" y="974.5" as="targetPoint" />
          </mxGeometry>
        </mxCell>
        <mxCell id="mDl54oqxt3nsEulQ3GVl-47" value="" style="endArrow=none;html=1;rounded=0;exitX=0.008;exitY=0.213;exitDx=0;exitDy=0;exitPerimeter=0;entryX=1.005;entryY=0.209;entryDx=0;entryDy=0;entryPerimeter=0;" edge="1" parent="mDl54oqxt3nsEulQ3GVl-1">
          <mxGeometry width="50" height="50" relative="1" as="geometry">
            <mxPoint x="320" y="1061" as="sourcePoint" />
            <mxPoint x="669" y="1060" as="targetPoint" />
          </mxGeometry>
        </mxCell>
        <mxCell id="mDl54oqxt3nsEulQ3GVl-48" value="" style="endArrow=none;html=1;rounded=0;entryX=0.269;entryY=0.008;entryDx=0;entryDy=0;entryPerimeter=0;exitX=0.269;exitY=1;exitDx=0;exitDy=0;exitPerimeter=0;" edge="1" parent="mDl54oqxt3nsEulQ3GVl-1">
          <mxGeometry width="50" height="50" relative="1" as="geometry">
            <mxPoint x="410" y="1127.52" as="sourcePoint" />
            <mxPoint x="410" y="819.9999999999995" as="targetPoint" />
          </mxGeometry>
        </mxCell>
        <mxCell id="mDl54oqxt3nsEulQ3GVl-49" value="" style="endArrow=none;html=1;rounded=0;entryX=0.269;entryY=0.008;entryDx=0;entryDy=0;entryPerimeter=0;exitX=0.269;exitY=1;exitDx=0;exitDy=0;exitPerimeter=0;" edge="1" parent="mDl54oqxt3nsEulQ3GVl-1">
          <mxGeometry width="50" height="50" relative="1" as="geometry">
            <mxPoint x="500" y="1130" as="sourcePoint" />
            <mxPoint x="500" y="822" as="targetPoint" />
          </mxGeometry>
        </mxCell>
        <mxCell id="mDl54oqxt3nsEulQ3GVl-50" value="" style="endArrow=none;html=1;rounded=0;entryX=0.269;entryY=0.008;entryDx=0;entryDy=0;entryPerimeter=0;exitX=0.269;exitY=1;exitDx=0;exitDy=0;exitPerimeter=0;" edge="1" parent="mDl54oqxt3nsEulQ3GVl-1">
          <mxGeometry width="50" height="50" relative="1" as="geometry">
            <mxPoint x="590" y="1130" as="sourcePoint" />
            <mxPoint x="590" y="822" as="targetPoint" />
          </mxGeometry>
        </mxCell>
        <mxCell id="mDl54oqxt3nsEulQ3GVl-51" value="парковка в моем представлении))" style="text;html=1;align=center;verticalAlign=middle;whiteSpace=wrap;rounded=0;" vertex="1" parent="mDl54oqxt3nsEulQ3GVl-1">
          <mxGeometry x="360" y="780" width="260" height="30" as="geometry" />
        </mxCell>
        <mxCell id="mDl54oqxt3nsEulQ3GVl-52" value="1.1.S" style="text;html=1;align=center;verticalAlign=middle;whiteSpace=wrap;rounded=0;" vertex="1" parent="mDl54oqxt3nsEulQ3GVl-1">
          <mxGeometry x="330" y="840" width="60" height="30" as="geometry" />
        </mxCell>
        <mxCell id="mDl54oqxt3nsEulQ3GVl-53" value="1.2.S" style="text;html=1;align=center;verticalAlign=middle;whiteSpace=wrap;rounded=0;" vertex="1" parent="mDl54oqxt3nsEulQ3GVl-1">
          <mxGeometry x="420" y="845" width="60" height="30" as="geometry" />
        </mxCell>
        <mxCell id="mDl54oqxt3nsEulQ3GVl-54" value="1.4.S" style="text;html=1;align=center;verticalAlign=middle;whiteSpace=wrap;rounded=0;" vertex="1" parent="mDl54oqxt3nsEulQ3GVl-1">
          <mxGeometry x="430" y="920" width="60" height="30" as="geometry" />
        </mxCell>
        <mxCell id="mDl54oqxt3nsEulQ3GVl-55" value="2.1.S" style="text;html=1;align=center;verticalAlign=middle;whiteSpace=wrap;rounded=0;" vertex="1" parent="mDl54oqxt3nsEulQ3GVl-1">
          <mxGeometry x="330" y="1010" width="60" height="30" as="geometry" />
        </mxCell>
        <mxCell id="mDl54oqxt3nsEulQ3GVl-56" value="2.2.S" style="text;html=1;align=center;verticalAlign=middle;whiteSpace=wrap;rounded=0;" vertex="1" parent="mDl54oqxt3nsEulQ3GVl-1">
          <mxGeometry x="430" y="1010" width="60" height="30" as="geometry" />
        </mxCell>
        <mxCell id="mDl54oqxt3nsEulQ3GVl-57" value="2.3.S" style="text;html=1;align=center;verticalAlign=middle;whiteSpace=wrap;rounded=0;" vertex="1" parent="mDl54oqxt3nsEulQ3GVl-1">
          <mxGeometry x="340" y="1080" width="60" height="30" as="geometry" />
        </mxCell>
        <mxCell id="mDl54oqxt3nsEulQ3GVl-58" value="2.1.S" style="text;html=1;align=center;verticalAlign=middle;whiteSpace=wrap;rounded=0;" vertex="1" parent="mDl54oqxt3nsEulQ3GVl-1">
          <mxGeometry x="430" y="1080" width="60" height="30" as="geometry" />
        </mxCell>
        <mxCell id="mDl54oqxt3nsEulQ3GVl-59" value="Я себе представила, что вся парковка будет размечена следующим образом:&amp;nbsp; 1.1.S - подномер парковочного места (точный № места), тогда 1.1.S + 1.2.S = 1.1.M,&amp;nbsp;&lt;div&gt;1.3.S + 1.4.S = 1.2. M, тогда 1.1.M + 1.2. M = 1.1.L.&amp;nbsp;&lt;/div&gt;&lt;div&gt;&lt;br&gt;&lt;/div&gt;&lt;div&gt;получаеся, если на парковочное место №&amp;nbsp;&lt;span style=&quot;background-color: transparent; color: light-dark(rgb(0, 0, 0), rgb(255, 255, 255));&quot;&gt;1.1.S заехал мотоцикл, то на парковочное место №&amp;nbsp;&lt;/span&gt;&lt;span style=&quot;background-color: transparent; color: light-dark(rgb(0, 0, 0), rgb(255, 255, 255));&quot;&gt;1.1.M легковой автомобиль не поместиться, т.е. у места №&amp;nbsp;&lt;/span&gt;&lt;span style=&quot;background-color: transparent; color: light-dark(rgb(0, 0, 0), rgb(255, 255, 255));&quot;&gt;1.1.M будет статус &quot;занят&quot;&lt;/span&gt;&lt;/div&gt;&lt;div&gt;&lt;span style=&quot;background-color: transparent; color: light-dark(rgb(0, 0, 0), rgb(255, 255, 255));&quot;&gt;&lt;br&gt;&lt;/span&gt;&lt;/div&gt;&lt;div&gt;&lt;span style=&quot;background-color: transparent; color: light-dark(rgb(0, 0, 0), rgb(255, 255, 255));&quot;&gt;Синим прямоугольником я выделила парковочное место № 1 размером L&lt;/span&gt;&lt;/div&gt;&lt;div&gt;&lt;span style=&quot;background-color: transparent; color: light-dark(rgb(0, 0, 0), rgb(255, 255, 255));&quot;&gt;&lt;br&gt;&lt;/span&gt;&lt;/div&gt;&lt;div&gt;Зеленый прямоугольник - парковочное место размером М&lt;/div&gt;" style="text;html=1;align=center;verticalAlign=middle;whiteSpace=wrap;rounded=0;" vertex="1" parent="mDl54oqxt3nsEulQ3GVl-1">
          <mxGeometry x="50" y="820" width="250" height="270" as="geometry" />
        </mxCell>
        <mxCell id="mDl54oqxt3nsEulQ3GVl-60" value="3.1.S" style="text;html=1;align=center;verticalAlign=middle;whiteSpace=wrap;rounded=0;" vertex="1" parent="mDl54oqxt3nsEulQ3GVl-1">
          <mxGeometry x="520" y="840" width="60" height="30" as="geometry" />
        </mxCell>
        <mxCell id="mDl54oqxt3nsEulQ3GVl-61" value="3.2.S" style="text;html=1;align=center;verticalAlign=middle;whiteSpace=wrap;rounded=0;" vertex="1" parent="mDl54oqxt3nsEulQ3GVl-1">
          <mxGeometry x="600" y="845" width="60" height="30" as="geometry" />
        </mxCell>
        <mxCell id="mDl54oqxt3nsEulQ3GVl-62" value="3.3.S" style="text;html=1;align=center;verticalAlign=middle;whiteSpace=wrap;rounded=0;" vertex="1" parent="mDl54oqxt3nsEulQ3GVl-1">
          <mxGeometry x="520" y="920" width="60" height="30" as="geometry" />
        </mxCell>
        <mxCell id="mDl54oqxt3nsEulQ3GVl-63" value="3.4.S" style="text;html=1;align=center;verticalAlign=middle;whiteSpace=wrap;rounded=0;" vertex="1" parent="mDl54oqxt3nsEulQ3GVl-1">
          <mxGeometry x="600" y="920" width="60" height="30" as="geometry" />
        </mxCell>
        <mxCell id="mDl54oqxt3nsEulQ3GVl-64" value="4.1.S" style="text;html=1;align=center;verticalAlign=middle;whiteSpace=wrap;rounded=0;" vertex="1" parent="mDl54oqxt3nsEulQ3GVl-1">
          <mxGeometry x="520" y="1010" width="60" height="30" as="geometry" />
        </mxCell>
        <mxCell id="mDl54oqxt3nsEulQ3GVl-65" value="4.2.S" style="text;html=1;align=center;verticalAlign=middle;whiteSpace=wrap;rounded=0;" vertex="1" parent="mDl54oqxt3nsEulQ3GVl-1">
          <mxGeometry x="600" y="1010" width="60" height="30" as="geometry" />
        </mxCell>
        <mxCell id="mDl54oqxt3nsEulQ3GVl-66" value="4.3.S" style="text;html=1;align=center;verticalAlign=middle;whiteSpace=wrap;rounded=0;" vertex="1" parent="mDl54oqxt3nsEulQ3GVl-1">
          <mxGeometry x="520" y="1080" width="60" height="30" as="geometry" />
        </mxCell>
        <mxCell id="mDl54oqxt3nsEulQ3GVl-67" value="4.4.S" style="text;html=1;align=center;verticalAlign=middle;whiteSpace=wrap;rounded=0;" vertex="1" parent="mDl54oqxt3nsEulQ3GVl-1">
          <mxGeometry x="600" y="1080" width="60" height="30" as="geometry" />
        </mxCell>
        <mxCell id="mDl54oqxt3nsEulQ3GVl-68" value="" style="swimlane;startSize=0;strokeColor=light-dark(#363bd3, #ededed);" vertex="1" parent="mDl54oqxt3nsEulQ3GVl-1">
          <mxGeometry x="320" y="820" width="180" height="150" as="geometry" />
        </mxCell>
        <mxCell id="mDl54oqxt3nsEulQ3GVl-69" value="" style="swimlane;startSize=0;strokeColor=light-dark(#2edc4b, #ededed);" vertex="1" parent="mDl54oqxt3nsEulQ3GVl-68">
          <mxGeometry x="10" y="10" width="160" height="60" as="geometry" />
        </mxCell>
        <mxCell id="mDl54oqxt3nsEulQ3GVl-70" value="1.3.S" style="text;html=1;align=center;verticalAlign=middle;whiteSpace=wrap;rounded=0;strokeColor=none;" vertex="1" parent="mDl54oqxt3nsEulQ3GVl-68">
          <mxGeometry x="20" y="100" width="60" height="30" as="geometry" />
        </mxCell>
        <mxCell id="mDl54oqxt3nsEulQ3GVl-71" value="" style="swimlane;startSize=0;strokeColor=light-dark(#2edc4b, #ededed);" vertex="1" parent="mDl54oqxt3nsEulQ3GVl-68">
          <mxGeometry x="14" y="90" width="160" height="60" as="geometry" />
        </mxCell>
        <mxCell id="AAHCFzR558QcZZyDcXcl-0" value="Логика парковки" style="swimlane;childLayout=stackLayout;horizontal=1;startSize=50;horizontalStack=0;rounded=1;fontSize=14;fontStyle=0;strokeWidth=2;resizeParent=0;resizeLast=1;shadow=0;dashed=0;align=center;arcSize=4;whiteSpace=wrap;html=1;" vertex="1" parent="mDl54oqxt3nsEulQ3GVl-1">
          <mxGeometry x="770" y="540" width="170" height="150" as="geometry" />
        </mxCell>
        <mxCell id="AAHCFzR558QcZZyDcXcl-1" value="&lt;div&gt;*Номер&lt;/div&gt;Номер места&lt;div&gt;Размер места&lt;/div&gt;&lt;div&gt;Вместимость&lt;/div&gt;&lt;div&gt;Статус вместимости&lt;/div&gt;&lt;div&gt;Статус места&lt;/div&gt;" style="align=left;strokeColor=none;fillColor=none;spacingLeft=4;spacingRight=4;fontSize=12;verticalAlign=top;resizable=0;rotatable=0;part=1;html=1;whiteSpace=wrap;" vertex="1" parent="AAHCFzR558QcZZyDcXcl-0">
          <mxGeometry y="50" width="170" height="100" as="geometry" />
        </mxCell>
        <mxCell id="AAHCFzR558QcZZyDcXcl-2" value="" style="endArrow=ERzeroToOne;html=1;rounded=0;exitX=0.5;exitY=1;exitDx=0;exitDy=0;entryX=-0.024;entryY=0.16;entryDx=0;entryDy=0;entryPerimeter=0;edgeStyle=orthogonalEdgeStyle;startArrow=ERmandOne;startFill=0;endFill=0;" edge="1" parent="mDl54oqxt3nsEulQ3GVl-1" source="mDl54oqxt3nsEulQ3GVl-32" target="AAHCFzR558QcZZyDcXcl-1">
          <mxGeometry width="50" height="50" relative="1" as="geometry">
            <mxPoint x="780" y="520" as="sourcePoint" />
            <mxPoint x="830" y="470" as="targetPoint" />
            <Array as="points">
              <mxPoint x="630" y="606" />
            </Array>
          </mxGeometry>
        </mxCell>
        <mxCell id="AAHCFzR558QcZZyDcXcl-5" value="Содержит" style="edgeLabel;html=1;align=center;verticalAlign=middle;resizable=0;points=[];" vertex="1" connectable="0" parent="AAHCFzR558QcZZyDcXcl-2">
          <mxGeometry x="-0.4066" y="-1" relative="1" as="geometry">
            <mxPoint as="offset" />
          </mxGeometry>
        </mxCell>
        <mxCell id="AAHCFzR558QcZZyDcXcl-3" value="&quot;Логика парковки&quot; - отражает вместимость точных мест. Например, Номер места 1.1.L имеет &quot;Вместимость&quot; - 1.1. M, 1.2.M. Номер места 1.1. M имеет &quot;Вместимость&quot; 1.1.S, 1.2.S.&amp;nbsp;&lt;br&gt;Если хоть одно место из &quot;Вместимости&quot; имеет статус занято, то &quot;Статус вместимости&quot; - занято и &quot;Статус места&quot; - занято" style="shape=note;whiteSpace=wrap;html=1;backgroundOutline=1;darkOpacity=0.05;fillColor=#fff2cc;strokeColor=#d6b656;" vertex="1" parent="mDl54oqxt3nsEulQ3GVl-1">
          <mxGeometry x="790" y="710" width="170" height="200" as="geometry" />
        </mxCell>
        <mxCell id="AAHCFzR558QcZZyDcXcl-4" value="" style="endArrow=ERmandOne;html=1;rounded=0;exitX=1.012;exitY=0.12;exitDx=0;exitDy=0;exitPerimeter=0;entryX=0;entryY=0.75;entryDx=0;entryDy=0;edgeStyle=orthogonalEdgeStyle;startArrow=ERoneToMany;startFill=0;endFill=0;" edge="1" parent="mDl54oqxt3nsEulQ3GVl-1" source="AAHCFzR558QcZZyDcXcl-1" target="mDl54oqxt3nsEulQ3GVl-9">
          <mxGeometry width="50" height="50" relative="1" as="geometry">
            <mxPoint x="920" y="700" as="sourcePoint" />
            <mxPoint x="970" y="650" as="targetPoint" />
          </mxGeometry>
        </mxCell>
        <mxCell id="AAHCFzR558QcZZyDcXcl-6" value="Содержит" style="edgeLabel;html=1;align=center;verticalAlign=middle;resizable=0;points=[];" vertex="1" connectable="0" parent="AAHCFzR558QcZZyDcXcl-4">
          <mxGeometry x="-0.0987" y="-1" relative="1" as="geometry">
            <mxPoint as="offset" />
          </mxGeometry>
        </mxCell>
      </root>
    </mxGraphModel>
  </diagram>
</mxfile>
